# xmcd
#
# Track frame offsets: 
#        150
#        18038
#        34040
#        48166
#        68672
#        84907
#        100472
#        114083
#        129067
#        140813
#        158029
#
# Disc length: 2384 seconds
#
# Revision: 0
# Processed by: cddbd v1.5.2PL0 Copyright (c) Steve Scherf et al.
# Submitted via: ExactAudioCopy v0.99pb4
#
DISCID=7a094e0b
DTITLE=Lenny Sales - Life goes on
DYEAR=1994
DGENRE=Easy Listening
TTITLE0=Heaven sent me an Angel
TTITLE1=Read all about it
TTITLE2=The way that we feel
TTITLE3=Sister and Brother
TTITLE4=Let freedom ring
TTITLE5=Can't find my way back home
TTITLE6=Weekend for two
TTITLE7=Where we belong
TTITLE8=Oceans of emotion
TTITLE9=Life goes on
TTITLE10=Make it real
EXTD=
EXTT0=
EXTT1=
EXTT2=
EXTT3=
EXTT4=
EXTT5=
EXTT6=
EXTT7=
EXTT8=
EXTT9=
EXTT10=
PLAYORDER=
